<?xml version="1.0" encoding="UTF-8" standalone="no"?>
<svg
   id="Layer_1"
   data-name="Layer 1"
   viewBox="0 0 512 512"
   version="1.1"
   sodipodi:docname="margintopBigLogo.svg"
   width="512"
   height="512"
   inkscape:version="1.3 (0e150ed, 2023-07-21)"
   inkscape:export-filename="../../portfolio/src/assets/company/margintop.svg"
   inkscape:export-xdpi="96"
   inkscape:export-ydpi="96"
   xmlns:inkscape="http://www.inkscape.org/namespaces/inkscape"
   xmlns:sodipodi="http://sodipodi.sourceforge.net/DTD/sodipodi-0.dtd"
   xmlns="http://www.w3.org/2000/svg"
   xmlns:svg="http://www.w3.org/2000/svg">
  <sodipodi:namedview
     id="namedview12"
     pagecolor="#505050"
     bordercolor="#eeeeee"
     borderopacity="1"
     inkscape:showpageshadow="0"
     inkscape:pageopacity="0"
     inkscape:pagecheckerboard="0"
     inkscape:deskcolor="#505050"
     inkscape:zoom="0.53229427"
     inkscape:cx="464.96837"
     inkscape:cy="434.90981"
     inkscape:window-width="1920"
     inkscape:window-height="1011"
     inkscape:window-x="0"
     inkscape:window-y="32"
     inkscape:window-maximized="1"
     inkscape:current-layer="Layer_1" />
  <defs
     id="defs1">
    <style
       id="style1">.cls-1{fill:#fff;}</style>
  </defs>
  <path
     class="cls-1"
     d="M 5.3741125,358.15714 H 20.534102 l 16.96645,56.01956 h 0.170213 L 54.208934,358.15714 H 69.19322 v 71.54967 H 58.947461 V 374.46664 H 58.760776 L 41.739419,429.70681 H 32.849878 L 15.795575,374.49219 h -0.170213 v 55.21462 H 5.3741125 Z"
     id="path1"
     style="fill:#040404;fill-opacity:1;stroke-width:0.592258" />
  <path
     class="cls-1"
     d="M 96.498774,358.15714 H 107.9525 l 23.68165,71.54967 h -11.5306 l -5.77628,-18.96704 H 89.778082 l -5.759809,18.96704 h -11.11879 z m -3.788626,43.08952 h 18.761922 l -9.21349,-30.76636 h -0.26356 z"
     id="path2"
     style="fill:#040404;fill-opacity:1;stroke-width:0.592258" />
  <path
     class="cls-1"
     d="m 135.42826,358.15714 h 29.37009 q 10.1579,0 15.24235,5.1107 5.08443,5.11068 5.07894,14.23328 a 17.83399,20.749403 0 0 1 -1.29032,8.46457 15.923205,18.526253 0 0 1 -3.01443,5.41094 11.678847,13.588048 0 0 1 -3.39878,2.95781 q -1.68017,0.90077 -2.45437,1.20102 v 0.19805 a 11.184679,13.013096 0 0 1 2.97051,1.00296 8.7852168,10.221381 0 0 1 2.97049,2.55535 11.909459,13.856359 0 0 1 2.27867,4.56129 17.301386,20.129733 0 0 1 0.90598,7.0272 54.693466,63.634486 0 0 0 0.81812,11.49905 q 0.81812,5.16819 2.54222,7.36579 h -11.5306 a 10.004166,11.639598 0 0 1 -1.4221,-5.1107 q -0.21414,-2.81088 -0.21414,-5.41094 a 44.277493,51.515761 0 0 0 -0.51614,-8.47097 12.738564,14.821002 0 0 0 -1.89431,-5.96034 8.0220011,9.3333986 0 0 0 -3.75019,-3.4561 16.505226,19.20342 0 0 0 -6.03984,-1.10519 h -15.89025 v 29.4759 h -10.7619 z m 10.7619,32.58066 h 17.65829 q 5.1668,0 7.83531,-2.8556 2.66851,-2.8556 2.674,-8.56679 a 11.448236,13.319738 0 0 0 -0.86206,-5.56427 7.0226827,8.1707165 0 0 0 -2.36651,-3.35389 8.7358,10.163886 0 0 0 -3.4482,-1.60348 22.715276,26.428658 0 0 0 -4.00276,-0.40246 h -17.48807 z"
     id="path3"
     style="fill:#040404;fill-opacity:1;stroke-width:0.592258" />
  <path
     class="cls-1"
     d="m 247.64294,429.70681 h -6.88541 l -1.64723,-8.41986 q -4.31025,5.7112 -8.60952,7.92157 a 24.483302,28.485711 0 0 1 -9.88337,2.20399 29.035142,33.781665 0 0 1 -12.37068,-2.98337 27.168283,31.609621 0 0 1 -9.25742,-8.06849 30.836111,35.877047 0 0 1 -5.81471,-11.9207 39.247956,45.66402 0 0 1 0,-28.96484 30.836111,35.877047 0 0 1 5.81471,-11.92068 27.640488,32.159021 0 0 1 9.25742,-8.11961 28.551955,33.219488 0 0 1 12.3597,-3.00892 33.460695,38.930685 0 0 1 9.51549,1.55876 25.422221,29.578121 0 0 1 8.05495,4.60602 21.902644,25.48318 0 0 1 5.85315,7.66602 23.028249,26.792795 0 0 1 2.93206,10.62386 h -10.50931 a 13.177825,15.332072 0 0 0 -5.42488,-10.62386 15.720047,18.289884 0 0 0 -4.82637,-2.70227 19.766737,22.998107 0 0 0 -5.59509,-0.90715 17.268442,20.091402 0 0 0 -8.48322,2.30621 16.653477,19.375906 0 0 0 -5.81471,6.16477 23.945206,27.859651 0 0 0 -3.29446,8.76483 35.020071,40.744981 0 0 0 0,20.04668 23.890299,27.795769 0 0 0 3.29446,8.76483 16.653477,19.375906 0 0 0 5.81471,6.152 17.208044,20.02113 0 0 0 8.48322,2.3062 19.99735,23.266419 0 0 0 7.31918,-1.27767 14.58346,16.967492 0 0 0 5.38645,-3.9033 14.232052,16.558638 0 0 0 3.29444,-6.26698 22.764693,26.486154 0 0 0 1.20249,-8.21544 h -16.36247 v -9.47393 h 26.19642 z"
     id="path4"
     style="fill:#040404;fill-opacity:1;stroke-width:0.592258" />
  <path
     class="cls-1"
     d="m 257.29569,358.15714 h 10.76738 v 71.54967 h -10.76738 z"
     id="path5"
     style="fill:#040404;fill-opacity:1;stroke-width:0.592258" />
  <path
     class="cls-1"
     d="m 278.7426,358.15714 h 11.36588 l 28.07974,52.71039 h 0.17022 v -52.71039 h 10.25125 v 71.54967 h -11.37137 l -28.00287,-52.60816 h -0.25806 v 52.60816 H 278.7426 Z"
     id="path6"
     style="fill:#040404;fill-opacity:1;stroke-width:0.592258" />
  <path
     class="cls-1"
     d="m 341.17255,358.15714 h 49.77923 v 10.79635 h -19.5526 v 60.75332 H 360.6373 v -60.75332 h -19.46475 z"
     id="path7"
     style="fill:#040404;fill-opacity:1;stroke-width:0.592258" />
  <path
     class="cls-1"
     d="m 422.21617,356.4259 a 28.551955,33.219488 0 0 1 12.3597,3.00892 27.640488,32.159021 0 0 1 9.25743,8.11961 31.028287,36.10064 0 0 1 5.81472,11.92068 39.247956,45.66402 0 0 1 0,28.96484 31.028287,36.10064 0 0 1 -5.81472,11.9207 27.168283,31.609621 0 0 1 -9.25743,8.06849 31.297335,36.413671 0 0 1 -24.70841,0 27.168283,31.609621 0 0 1 -9.25743,-8.06849 30.929454,35.985651 0 0 1 -5.81471,-11.9207 39.247956,45.66402 0 0 1 0,-28.96484 30.929454,35.985651 0 0 1 5.81471,-11.92068 27.640488,32.159021 0 0 1 9.24645,-8.11961 28.551955,33.219488 0 0 1 12.35969,-3.00892 z m 0,10.22138 a 17.268442,20.091402 0 0 0 -8.48322,2.30621 16.653477,19.375906 0 0 0 -5.81472,6.16477 23.945206,27.859651 0 0 0 -3.29445,8.76483 35.020071,40.744981 0 0 0 0,20.04668 23.890299,27.795769 0 0 0 3.29445,8.76483 16.653477,19.375906 0 0 0 5.81472,6.152 19.146282,22.276222 0 0 0 16.96645,0 16.653477,19.375906 0 0 0 5.8257,-6.152 23.890299,27.795769 0 0 0 3.29446,-8.76483 35.020071,40.744981 0 0 0 0,-20.04668 23.945206,27.859651 0 0 0 -3.29446,-8.76483 16.653477,19.375906 0 0 0 -5.81472,-6.16477 17.268442,20.091402 0 0 0 -8.49421,-2.30621 z"
     id="path8"
     style="fill:#040404;fill-opacity:1;stroke-width:0.592258" />
  <path
     class="cls-1"
     d="m 459.42157,358.15714 h 27.12984 q 6.545,0 10.67953,2.204 a 16.867616,19.625053 0 0 1 6.37478,5.46204 16.03302,18.65402 0 0 1 3.05835,7.21246 26.470956,30.798299 0 0 1 0.81811,7.21886 25.866972,30.095579 0 0 1 -0.81811,7.16135 16.071456,18.69874 0 0 1 -3.05835,7.16774 16.516208,19.216196 0 0 1 -6.37478,5.46205 q -4.15101,2.19121 -10.67953,2.19121 h -16.36246 v 27.46996 h -10.76738 z m 10.76738,33.85834 h 15.75299 a 13.979477,16.264773 0 0 0 3.70077,-0.60051 10.624621,12.361483 0 0 0 3.48664,-1.95485 8.5326418,9.927516 0 0 0 2.58614,-3.60942 10.641094,12.380647 0 0 0 0.98834,-5.66009 12.656203,14.725177 0 0 0 -0.85656,-5.81341 8.0000381,9.3078451 0 0 0 -2.32808,-3.65414 8.2910483,9.6464283 0 0 0 -3.36034,-1.85901 18.333649,21.330745 0 0 0 -4.04669,-0.4983 h -15.92321 z"
     id="path9"
     style="fill:#040404;fill-opacity:1;stroke-width:0.592258" />
  <path
     class="cls-1"
     d="m 218.63525,194.30202 62.17188,111.2789 a 11.48118,13.358068 0 0 1 -9.6253,20.63441 h -44.24455 a 11.47569,13.351679 0 0 1 -9.77355,-6.38836 L 160.05982,211.86362 Z"
     id="path10"
     style="fill:#040404;fill-opacity:1;stroke-width:0.592258" />
  <path
     class="cls-1"
     d="m 265.87227,249.13973 21.52927,36.91196 a 11.48118,13.358068 0 0 0 19.59103,-1.13713 l 40.13745,-86.24291 -64.24189,-4.39518 -17.78457,41.39659 a 11.470199,13.345291 0 0 0 0.76871,13.46667 z"
     id="path11"
     style="fill:#040404;fill-opacity:1;stroke-width:0.592258" />
  <path
     class="cls-1"
     d="M 418.35618,218.09229 271.75287,73.006169 a 23.659687,27.527456 0 0 0 -30.66041,0 L 94.489158,218.09229 c -9.235464,9.13535 -1.262875,26.47337 10.394012,22.6148 l 151.54499,-50.21893 151.54498,50.21893 c 11.64591,3.85857 19.6185,-13.47945 10.38304,-22.6148 z"
     id="path12"
     style="fill:#040404;fill-opacity:1;stroke-width:0.592258" />
</svg>
