{
    "asset" : {
        "generator" : "Khronos glTF Blender I/O v1.7.33",
        "version" : "2.0"
    },
    "scene" : 0,
    "scenes" : [
        {
            "name" : "Scene",
            "nodes" : [
                0,
                1
            ]
        }
    ],
    "nodes" : [
        {
            "name" : "Empty",
            "rotation" : [
                0.7071068286895752,
                0,
                0,
                0.7071068286895752
            ],
            "scale" : [
                0.28701937198638916,
                0.28701937198638916,
                0.28701937198638916
            ]
        },
        {
            "mesh" : 0,
            "name" : "Plane"
        }
    ],
    "materials" : [
        {
            "doubleSided" : true,
            "emissiveFactor" : [
                1,
                1,
                1
            ],
            "name" : "Material",
            "pbrMetallicRoughness" : {
                "baseColorFactor" : [
                    0,
                    0,
                    0,
                    1
                ],
                "metallicFactor" : 0.3806818127632141,
                "roughnessFactor" : 0.05681818723678589
            }
        },
        {
            "doubleSided" : true,
            "name" : "Material.001",
            "pbrMetallicRoughness" : {
                "baseColorFactor" : [
                    0,
                    0,
                    0,
                    1
                ],
                "metallicFactor" : 0,
                "roughnessFactor" : 0.5
            }
        },
        {
            "doubleSided" : true,
            "name" : "Material.002",
            "pbrMetallicRoughness" : {
                "baseColorFactor" : [
                    0.001388042001053691,
                    0.010021082125604153,
                    0.002763807075098157,
                    1
                ],
                "metallicFactor" : 0,
                "roughnessFactor" : 0.5
            }
        }
    ],
    "meshes" : [
        {
            "name" : "Plane",
            "primitives" : [
                {
                    "attributes" : {
                        "POSITION" : 0,
                        "NORMAL" : 1,
                        "TEXCOORD_0" : 2
                    },
                    "indices" : 3,
                    "material" : 0
                },
                {
                    "attributes" : {
                        "POSITION" : 4,
                        "NORMAL" : 5,
                        "TEXCOORD_0" : 6
                    },
                    "indices" : 7,
                    "material" : 1
                },
                {
                    "attributes" : {
                        "POSITION" : 8,
                        "NORMAL" : 9,
                        "TEXCOORD_0" : 10
                    },
                    "indices" : 11,
                    "material" : 2
                }
            ]
        }
    ],
    "accessors" : [
        {
            "bufferView" : 0,
            "componentType" : 5126,
            "count" : 290,
            "max" : [
                0.6009774804115295,
                0.6511565446853638,
                0.13810160756111145
            ],
            "min" : [
                -0.6181524395942688,
                -0.6275398135185242,
                -6.9506363331584e-08
            ],
            "type" : "VEC3"
        },
        {
            "bufferView" : 1,
            "componentType" : 5126,
            "count" : 290,
            "type" : "VEC3"
        },
        {
            "bufferView" : 2,
            "componentType" : 5126,
            "count" : 290,
            "type" : "VEC2"
        },
        {
            "bufferView" : 3,
            "componentType" : 5123,
            "count" : 438,
            "type" : "SCALAR"
        },
        {
            "bufferView" : 4,
            "componentType" : 5126,
            "count" : 104,
            "max" : [
                0.569946825504303,
                0.6154852509498596,
                0.1217721700668335
            ],
            "min" : [
                -0.5769603252410889,
                -0.600426435470581,
                0.016329452395439148
            ],
            "type" : "VEC3"
        },
        {
            "bufferView" : 5,
            "componentType" : 5126,
            "count" : 104,
            "type" : "VEC3"
        },
        {
            "bufferView" : 6,
            "componentType" : 5126,
            "count" : 104,
            "type" : "VEC2"
        },
        {
            "bufferView" : 7,
            "componentType" : 5123,
            "count" : 180,
            "type" : "SCALAR"
        },
        {
            "bufferView" : 8,
            "componentType" : 5126,
            "count" : 116,
            "max" : [
                0.6009774804115295,
                0.6511565446853638,
                0.13810160756111145
            ],
            "min" : [
                -0.6181524395942688,
                -0.6275398135185242,
                -6.9506363331584e-08
            ],
            "type" : "VEC3"
        },
        {
            "bufferView" : 9,
            "componentType" : 5126,
            "count" : 116,
            "type" : "VEC3"
        },
        {
            "bufferView" : 10,
            "componentType" : 5126,
            "count" : 116,
            "type" : "VEC2"
        },
        {
            "bufferView" : 11,
            "componentType" : 5123,
            "count" : 174,
            "type" : "SCALAR"
        }
    ],
    "bufferViews" : [
        {
            "buffer" : 0,
            "byteLength" : 3480,
            "byteOffset" : 0
        },
        {
            "buffer" : 0,
            "byteLength" : 3480,
            "byteOffset" : 3480
        },
        {
            "buffer" : 0,
            "byteLength" : 2320,
            "byteOffset" : 6960
        },
        {
            "buffer" : 0,
            "byteLength" : 876,
            "byteOffset" : 9280
        },
        {
            "buffer" : 0,
            "byteLength" : 1248,
            "byteOffset" : 10156
        },
        {
            "buffer" : 0,
            "byteLength" : 1248,
            "byteOffset" : 11404
        },
        {
            "buffer" : 0,
            "byteLength" : 832,
            "byteOffset" : 12652
        },
        {
            "buffer" : 0,
            "byteLength" : 360,
            "byteOffset" : 13484
        },
        {
            "buffer" : 0,
            "byteLength" : 1392,
            "byteOffset" : 13844
        },
        {
            "buffer" : 0,
            "byteLength" : 1392,
            "byteOffset" : 15236
        },
        {
            "buffer" : 0,
            "byteLength" : 928,
            "byteOffset" : 16628
        },
        {
            "buffer" : 0,
            "byteLength" : 348,
            "byteOffset" : 17556
        }
    ],
    "buffers" : [
        {
            "byteLength" : 17904,
            "uri" : "logo.bin"
        }
    ]
}
