{
    "asset" : {
        "generator" : "Khronos glTF Blender I/O v1.7.33",
        "version" : "2.0"
    },
    "scene" : 0,
    "scenes" : [
        {
            "name" : "Scene",
            "nodes" : [
                0
            ]
        }
    ],
    "nodes" : [
        {
            "mesh" : 0,
            "name" : "Plane",
            "rotation" : [
                0.7071068286895752,
                0,
                0,
                0.7071068286895752
            ]
        }
    ],
    "materials" : [
        {
            "doubleSided" : true,
            "name" : "mat1",
            "pbrMetallicRoughness" : {
                "baseColorFactor" : [
                    0.0060488395392894745,
                    0.017641961574554443,
                    0.06301002204418182,
                    1
                ],
                "metallicFactor" : 0,
                "roughnessFactor" : 0.5
            }
        },
        {
            "doubleSided" : true,
            "emissiveFactor" : [
                0.5584629774093628,
                1,
                0.4108743369579315
            ],
            "name" : "emissive1",
            "pbrMetallicRoughness" : {
                "baseColorFactor" : [
                    0.01444382593035698,
                    0.15592654049396515,
                    0.04518623650074005,
                    0.8181818127632141
                ],
                "metallicFactor" : 0.35227271914482117,
                "roughnessFactor" : 0.5
            }
        },
        {
            "doubleSided" : true,
            "emissiveFactor" : [
                1,
                1,
                1
            ],
            "name" : "sidemat",
            "pbrMetallicRoughness" : {
                "baseColorFactor" : [
                    0.7437273859977722,
                    0.7940847277641296,
                    0.2554260492324829,
                    1
                ],
                "metallicFactor" : 0,
                "roughnessFactor" : 0.5
            }
        }
    ],
    "meshes" : [
        {
            "name" : "Plane.003",
            "primitives" : [
                {
                    "attributes" : {
                        "POSITION" : 0,
                        "NORMAL" : 1,
                        "TEXCOORD_0" : 2
                    },
                    "indices" : 3,
                    "material" : 0
                },
                {
                    "attributes" : {
                        "POSITION" : 4,
                        "NORMAL" : 5,
                        "TEXCOORD_0" : 6
                    },
                    "indices" : 7,
                    "material" : 1
                },
                {
                    "attributes" : {
                        "POSITION" : 8,
                        "NORMAL" : 9,
                        "TEXCOORD_0" : 10
                    },
                    "indices" : 11,
                    "material" : 2
                }
            ]
        }
    ],
    "accessors" : [
        {
            "bufferView" : 0,
            "componentType" : 5126,
            "count" : 94,
            "max" : [
                1.0052790641784668,
                0.4000000059604645,
                1.234818935394287
            ],
            "min" : [
                -1.0940282344818115,
                0,
                -1.1888763904571533
            ],
            "type" : "VEC3"
        },
        {
            "bufferView" : 1,
            "componentType" : 5126,
            "count" : 94,
            "type" : "VEC3"
        },
        {
            "bufferView" : 2,
            "componentType" : 5126,
            "count" : 94,
            "type" : "VEC2"
        },
        {
            "bufferView" : 3,
            "componentType" : 5123,
            "count" : 168,
            "type" : "SCALAR"
        },
        {
            "bufferView" : 4,
            "componentType" : 5126,
            "count" : 16,
            "max" : [
                0.6015247702598572,
                0.27615422010421753,
                0.5678805708885193
            ],
            "min" : [
                -0.6491100788116455,
                0.12384580075740814,
                -0.936212956905365
            ],
            "type" : "VEC3"
        },
        {
            "bufferView" : 5,
            "componentType" : 5126,
            "count" : 16,
            "type" : "VEC3"
        },
        {
            "bufferView" : 6,
            "componentType" : 5126,
            "count" : 16,
            "type" : "VEC2"
        },
        {
            "bufferView" : 7,
            "componentType" : 5123,
            "count" : 30,
            "type" : "SCALAR"
        },
        {
            "bufferView" : 8,
            "componentType" : 5126,
            "count" : 28,
            "max" : [
                1.0052790641784668,
                0.4000000059604645,
                1.234818935394287
            ],
            "min" : [
                -1.0940282344818115,
                0,
                -1.1888763904571533
            ],
            "type" : "VEC3"
        },
        {
            "bufferView" : 9,
            "componentType" : 5126,
            "count" : 28,
            "type" : "VEC3"
        },
        {
            "bufferView" : 10,
            "componentType" : 5126,
            "count" : 28,
            "type" : "VEC2"
        },
        {
            "bufferView" : 11,
            "componentType" : 5123,
            "count" : 42,
            "type" : "SCALAR"
        }
    ],
    "bufferViews" : [
        {
            "buffer" : 0,
            "byteLength" : 1128,
            "byteOffset" : 0
        },
        {
            "buffer" : 0,
            "byteLength" : 1128,
            "byteOffset" : 1128
        },
        {
            "buffer" : 0,
            "byteLength" : 752,
            "byteOffset" : 2256
        },
        {
            "buffer" : 0,
            "byteLength" : 336,
            "byteOffset" : 3008
        },
        {
            "buffer" : 0,
            "byteLength" : 192,
            "byteOffset" : 3344
        },
        {
            "buffer" : 0,
            "byteLength" : 192,
            "byteOffset" : 3536
        },
        {
            "buffer" : 0,
            "byteLength" : 128,
            "byteOffset" : 3728
        },
        {
            "buffer" : 0,
            "byteLength" : 60,
            "byteOffset" : 3856
        },
        {
            "buffer" : 0,
            "byteLength" : 336,
            "byteOffset" : 3916
        },
        {
            "buffer" : 0,
            "byteLength" : 336,
            "byteOffset" : 4252
        },
        {
            "buffer" : 0,
            "byteLength" : 224,
            "byteOffset" : 4588
        },
        {
            "buffer" : 0,
            "byteLength" : 84,
            "byteOffset" : 4812
        }
    ],
    "buffers" : [
        {
            "byteLength" : 4896,
            "uri" : "logo.bin"
        }
    ]
}
